# 3ds Max Wavefront OBJ Exporter v0.99 - (c)2007 guruware
# File Created: 21.01.2025 09:48:47

mtllib grassSmall1mesh.mtl

#
# object Plane001
#

v  -0.5647 0.0060 -0.4836
v  -0.5760 -0.0850 -0.4746
v  -0.5549 -0.0850 -0.4485
v  -0.5437 0.0060 -0.4576
v  -0.5606 0.0052 -0.4870
v  -0.5395 0.0052 -0.4610
v  -0.5508 -0.0858 -0.4519
v  -0.5719 -0.0858 -0.4779
v  -0.2066 0.1343 -0.4706
v  -0.1940 -0.0945 -0.4706
v  -0.1158 -0.0754 -0.4706
v  -0.1740 0.1343 -0.4706
v  -0.2066 0.1343 -0.4836
v  -0.1740 0.1343 -0.4836
v  -0.1158 -0.0754 -0.4836
v  -0.1940 -0.0945 -0.4836
v  -0.4291 0.1343 -0.4682
v  -0.4444 -0.0871 -0.4339
v  -0.4116 -0.0871 -0.5074
v  -0.4158 0.1343 -0.4980
v  -0.4409 0.1343 -0.4735
v  -0.4276 0.1343 -0.5033
v  -0.4234 -0.0871 -0.5127
v  -0.4562 -0.0871 -0.4391
v  -0.4905 0.1343 -0.1591
v  -0.5114 -0.0872 -0.1873
v  -0.4633 -0.0797 -0.2515
v  -0.4431 0.1343 -0.2242
v  -0.5010 0.1343 -0.1667
v  -0.4536 0.1343 -0.2318
v  -0.4733 -0.0759 -0.2586
v  -0.5214 -0.0834 -0.1945
v  -0.1908 0.0400 -0.3054
v  -0.2121 -0.0815 -0.3037
v  -0.1823 -0.0847 -0.2696
v  -0.1786 0.0400 -0.2917
v  -0.1854 0.0400 -0.3103
v  -0.1731 0.0400 -0.2966
v  -0.1771 -0.0867 -0.2743
v  -0.2069 -0.0835 -0.3084
v  -0.3653 0.1343 -0.3769
v  -0.3883 -0.0871 -0.4067
v  -0.3391 -0.0871 -0.3430
v  -0.3454 0.1343 -0.3511
v  -0.3551 0.1343 -0.3848
v  -0.3352 0.1343 -0.3589
v  -0.3289 -0.0871 -0.3508
v  -0.3781 -0.0871 -0.4146
v  -0.5535 0.0970 -0.4927
v  -0.5494 0.0962 -0.4961
v  -0.1318 0.3479 -0.4706
v  -0.1318 0.3479 -0.4836
v  -0.4332 0.3557 -0.4590
v  -0.4450 0.3557 -0.4643
v  -0.5114 0.3558 -0.1873
v  -0.5214 0.3520 -0.1945
v  -0.1884 0.1640 -0.2766
v  -0.1832 0.1660 -0.2813
v  -0.3715 0.3557 -0.3849
v  -0.3613 0.3557 -0.3928
# 60 vertices

vn -0.7675 0.1569 0.6215
vn 0.7675 -0.1569 -0.6215
vn -0.0000 -0.0000 1.0000
vn 0.0000 0.0000 -1.0000
vn 0.9132 -0.0000 0.4076
vn -0.9132 0.0000 -0.4076
vn 0.8082 -0.0000 0.5889
vn 0.7992 -0.1494 0.5823
vn 0.8081 -0.0183 0.5888
vn -0.8082 0.0000 -0.5889
vn -0.8081 0.0186 -0.5888
vn -0.7992 0.1494 -0.5823
vn -0.7458 0.0132 0.6660
vn -0.7386 0.1390 0.6596
vn -0.7459 0.0031 0.6661
vn 0.7458 -0.0129 -0.6660
vn 0.7459 -0.0031 -0.6661
vn 0.7386 -0.1390 -0.6596
vn -0.7917 -0.0000 0.6109
vn 0.7917 0.0000 -0.6109
vn 0.7992 0.1494 0.5823
vn -0.7992 -0.1494 -0.5823
vn -0.7386 -0.1390 0.6596
vn 0.7386 0.1390 -0.6596
# 24 vertex normals

vt 0.0000 0.5000 0.0000
vt 0.0000 0.0000 0.0000
vt 1.0000 0.0000 0.0000
vt 1.0000 0.5000 0.0000
vt 1.0000 1.0000 0.0000
# 5 texture coords

o Plane001
g Plane001
usemtl wire_197224162
s 1
f 1/1/1 2/2/1 3/3/1 4/4/1 
f 5/1/2 6/4/2 7/3/2 8/2/2 
f 9/1/3 10/2/3 11/3/3 12/4/3 
f 13/1/4 14/4/4 15/3/4 16/2/4 
f 17/1/5 18/2/5 19/3/5 20/4/5 
f 21/1/6 22/4/6 23/3/6 24/2/6 
f 25/1/7 26/2/8 27/3/8 28/4/9 
f 29/1/10 30/4/11 31/3/12 32/2/12 
f 33/1/13 34/2/14 35/3/14 36/4/15 
f 37/1/16 38/4/17 39/3/18 40/2/18 
f 41/1/19 42/2/19 43/3/19 44/4/19 
f 45/1/20 46/4/20 47/3/20 48/2/20 
f 1/1/1 4/4/1 49/5/1 
f 5/1/2 50/5/2 6/4/2 
f 9/1/3 12/4/3 51/5/3 
f 13/1/4 52/5/4 14/4/4 
f 17/1/5 20/4/5 53/5/5 
f 21/1/6 54/5/6 22/4/6 
f 25/1/7 28/4/9 55/5/21 
f 29/1/10 56/5/22 30/4/11 
f 33/1/13 36/4/15 57/5/23 
f 37/1/16 58/5/24 38/4/17 
f 41/1/19 44/4/19 59/5/19 
f 45/1/20 60/5/20 46/4/20 
# 12 polygons - 12 triangles

